<svg width="20" height="20" viewBox="0 0 20 20" fill="none" xmlns="http://www.w3.org/2000/svg">
<path d="M19.375 0H13.125C12.78 0 12.5 0.28 12.5 0.625V19.375C12.5 19.72 12.78 20 13.125 20H19.375C19.72 20 20 19.72 20 19.375V0.625C20 0.28 19.72 0 19.375 0Z" fill="white"/>
<path d="M6.875 6.25C6.53 6.25 6.25 6.53 6.25 6.875V19.375C6.25 19.72 6.53 20 6.875 20H11.25V6.25H6.875Z" fill="white"/>
<path d="M0.625 12.5C0.28 12.5 0 12.78 0 13.125V19.375C0 19.72 0.28 20 0.625 20H5V12.5H0.625Z" fill="white"/>
</svg>
